<?xml version="1.0" encoding="utf-8"?>
<!-- Generator: Adobe Illustrator 22.0.0, SVG Export Plug-In . SVG Version: 6.00 Build 0)  -->
<svg version="1.1" id="圖層_1" xmlns="http://www.w3.org/2000/svg" xmlns:xlink="http://www.w3.org/1999/xlink" x="0px" y="0px"
	 viewBox="0 0 599.8 116.6" style="enable-background:new 0 0 599.8 116.6;" xml:space="preserve">
<style type="text/css">
	.st0{fill:#FFFFFF;}
</style>
<path class="st0" d="M57.5,0.7l57.2,39.7c0,0-7.8,6.9-19.1,9.3C83,52.5,74.4,47.1,72.4,46L44.1,26.1l-3.8,2.6l74.3,51.9
	c0,0-27,12.7-32.2,16.7c-4.3,3.3-21.8,14.1-24.9,18.5L-0.5,75.9c0,0,6.3-5.5,15.2-8c5.2-1.4,15.2-4.5,29.2,3.5l27.9,19.1L75,88L0,36
	c0,0,26.3-12.4,33.1-16.9S57.5,0.7,57.5,0.7z"/>
<path class="st0" d="M192,45.7h28.9c0,0,3.7-23-41.5-23.1c-45.1-0.1-37.2,27.6-37.2,27.6s1.6,10.7,16.6,14c14.9,3.3,21.6,3.3,25,3.8
	s9.3,1,10.2,4.6c0.9,3.7-2.9,4.8-3.8,5.2c-1.5,0.7-6.3,1.4-9.8,0.4c-3.6-1.1-7.7-5.4-8.5-7.6l-31.6,0c0,0-1,12.5,10.1,17.7
	s16,4.6,23.8,5.4c7.3,0.7,22-0.5,23.7-0.7c2.4-0.3,12.8-2.3,18.2-7c5.4-4.7,7.2-9.6,7.1-14c-0.1-4.3-0.9-9.3-6.2-13.5
	c-4.8-3.8-8.9-6.8-22.1-8.6s-17.7-2-21.1-3.1c-3.4-1.1-4.4-1.3-4.5-4c-0.1-2,3-3.9,3-3.9s3.3-1.2,7.8-0.8c4.5,0.4,6.4,1.5,8,2.9
	C189.6,42.4,192,45.7,192,45.7z"/>
<path class="st0" d="M228.7,22.6h24.8v44.5c0,0,0.9,8.5,14.4,8.4c13.6-0.1,14.6-8.4,14.6-8.4V22.6h24.8v46.8c0,0,1.9,16.2-17.3,20.9
	c-19.2,4.6-42.5,0.4-42.5,0.4s-7.8-1.7-12.7-5.5c-3.4-2.6-5.8-7.8-6.2-12.1C228.2,68.7,228.7,22.6,228.7,22.6z"/>
<polygon class="st0" points="315.5,22.6 315.5,39.8 352.1,39.8 314.2,76.1 314.2,90.3 391.4,90.3 391.4,73.4 352.8,73.4 391.4,36.9 
	391.4,22.6 "/>
<path class="st0" d="M398.3,22.6h24.8v44.5c0,0,0.9,8.5,14.4,8.4c13.6-0.1,14.6-8.4,14.6-8.4V22.6h24.8v46.8c0,0,1.9,16.2-17.3,20.9
	c-19.2,4.6-42.5,0.4-42.5,0.4s-7.8-1.7-12.7-5.5c-3.4-2.6-5.8-7.8-6.2-12.1S398.3,22.6,398.3,22.6z"/>
<polygon class="st0" points="483.9,22.6 483.9,90.3 509.7,90.3 509.7,66.8 534.9,90.3 568.9,90.3 531.9,55.6 570.3,22.6 536.8,22.6 
	509.8,46.2 509.8,22.6 "/>
<rect x="573.5" y="22.6" class="st0" width="26" height="67.7"/>
</svg>
